<?xml version="1.0" encoding="UTF-8" standalone="no"?>
<!-- Created with Inkscape (http://www.inkscape.org/) -->

<svg
   xmlns:dc="http://purl.org/dc/elements/1.1/"
   xmlns:cc="http://creativecommons.org/ns#"
   xmlns:rdf="http://www.w3.org/1999/02/22-rdf-syntax-ns#"
   xmlns:svg="http://www.w3.org/2000/svg"
   xmlns="http://www.w3.org/2000/svg"
   xmlns:sodipodi="http://sodipodi.sourceforge.net/DTD/sodipodi-0.dtd"
   xmlns:inkscape="http://www.inkscape.org/namespaces/inkscape"
   width="88.332085mm"
   height="58.928017mm"
   viewBox="0 0 35.332834 23.571207"
   version="1.1"
   id="svg6067"
   inkscape:version="0.92.2 (unknown)"
   sodipodi:docname="555_timer_pic6.svg">
  <defs
     id="defs6061" />
  <sodipodi:namedview
     id="base"
     pagecolor="#ffffff"
     bordercolor="#666666"
     borderopacity="1.0"
     inkscape:pageopacity="0.0"
     inkscape:pageshadow="2"
     inkscape:zoom="1.4"
     inkscape:cx="157.5163"
     inkscape:cy="88.523622"
     inkscape:document-units="mm"
     inkscape:current-layer="layer1"
     showgrid="false"
     inkscape:measure-start="-457.143,651.429"
     inkscape:measure-end="0,0"
     fit-margin-top="0"
     fit-margin-left="0"
     fit-margin-right="0"
     fit-margin-bottom="0"
     scale-x="0.4"
     inkscape:window-width="1366"
     inkscape:window-height="712"
     inkscape:window-x="0"
     inkscape:window-y="0"
     inkscape:window-maximized="1" />
  <metadata
     id="metadata6064">
    <rdf:RDF>
      <cc:Work
         rdf:about="">
        <dc:format>image/svg+xml</dc:format>
        <dc:type
           rdf:resource="http://purl.org/dc/dcmitype/StillImage" />
        <dc:title></dc:title>
      </cc:Work>
    </rdf:RDF>
  </metadata>
  <g
     inkscape:label="Layer 1"
     inkscape:groupmode="layer"
     id="layer1"
     transform="translate(-30.736678,-148.28415)">
    <g
       style="fill:#840000;fill-opacity:0;stroke:#840000;stroke-width:60;stroke-linecap:round;stroke-linejoin:round;stroke-opacity:1"
       id="g5755"
       transform="matrix(0.00254,0,0,0.00254,0.18082651,35.889154)">
      <circle
         cx="13500"
         cy="48500"
         r="1000"
         id="circle5743" />
      <path
         d="m 13270,48070 h 460"
         id="path5745"
         inkscape:connector-curvature="0" />
      <path
         d="m 13500,48300 v -460"
         id="path5747"
         inkscape:connector-curvature="0" />
      <path
         d="m 13270,49070 h 460"
         id="path5749"
         inkscape:connector-curvature="0" />
      <polyline
         fill="none;"
         points="13500,49500 13500,50000 "
         id="polyline5751" />
      <polyline
         fill="none;"
         points="13500,47000 13500,47500 "
         id="polyline5753" />
    </g>
    <g
       style="fill:#840000;fill-opacity:0;stroke:#840000;stroke-width:60;stroke-linecap:round;stroke-linejoin:round;stroke-opacity:1"
       id="g5815"
       transform="matrix(0.00254,0,0,0.00254,0.18082651,35.889154)">
      <path
         d="m 19110,47300 v -400"
         id="path5759"
         inkscape:connector-curvature="0" />
      <path
         d="m 19110,46700 -30,30 30,30 30,-30 -30,-30 v 60"
         id="path5761"
         inkscape:connector-curvature="0" />
      <path
         d="m 19400,46900 v 400"
         id="path5763"
         inkscape:connector-curvature="0" />
      <path
         d="m 19400,46960 30,-30 60,-30 h 80 l 60,30 30,60 v 310"
         id="path5765"
         inkscape:connector-curvature="0" />
      <path
         d="m 19940,47070 h 460"
         id="path5767"
         inkscape:connector-curvature="0" />
      <path
         d="m 20170,47300 v -460"
         id="path5769"
         inkscape:connector-curvature="0" />
      <path
         d="m 19110,49300 v -400"
         id="path5771"
         inkscape:connector-curvature="0" />
      <path
         d="m 19110,48700 -30,30 30,30 30,-30 -30,-30 v 60"
         id="path5773"
         inkscape:connector-curvature="0" />
      <path
         d="m 19400,48900 v 400"
         id="path5775"
         inkscape:connector-curvature="0" />
      <path
         d="m 19400,48960 30,-30 60,-30 h 80 l 60,30 30,60 v 310"
         id="path5777"
         inkscape:connector-curvature="0" />
      <path
         d="m 19940,49070 h 460"
         id="path5779"
         inkscape:connector-curvature="0" />
      <path
         d="m 24770,48300 -60,-30 -30,-30 -30,-50 v -170 l 30,-60 30,-30 60,-30 h 80 l 60,30 30,30 30,60 v 170 l -30,50 -30,30 -60,30 h -80"
         id="path5781"
         inkscape:connector-curvature="0" />
      <path
         d="m 25480,47900 v 400"
         id="path5783"
         inkscape:connector-curvature="0" />
      <path
         d="m 25220,47900 v 320 l 30,50 60,30 h 80 l 60,-30 30,-30"
         id="path5785"
         inkscape:connector-curvature="0" />
      <path
         d="m 25680,47900 h 230"
         id="path5787"
         inkscape:connector-curvature="0" />
      <path
         d="m 25760,47700 v 520 l 30,50 60,30 h 60"
         id="path5789"
         inkscape:connector-curvature="0" />
      <path
         d="m 22690,46700 200,600 200,-600"
         id="path5791"
         inkscape:connector-curvature="0" />
      <path
         d="m 23280,47070 h 460"
         id="path5793"
         inkscape:connector-curvature="0" />
      <path
         d="m 23510,47300 v -460"
         id="path5795"
         inkscape:connector-curvature="0" />
      <path
         d="m 22690,49700 200,600 200,-600"
         id="path5797"
         inkscape:connector-curvature="0" />
      <path
         d="m 23280,50070 h 460"
         id="path5799"
         inkscape:connector-curvature="0" />
      <polyline
         fill="none;"
         points="19500,47500 20500,47500 "
         id="polyline5801" />
      <polyline
         fill="none;"
         points="20500,49500 19500,49500 "
         id="polyline5803" />
      <polyline
         fill="none;"
         points="22500,49500 22500,50500 "
         id="polyline5805" />
      <polyline
         fill="none;"
         points="22500,47500 22500,46500 "
         id="polyline5807" />
      <polyline
         fill="none;"
         points="22500,47500 22500,46500 "
         id="polyline5809" />
      <polyline
         fill="none;"
         points="25500,48500 24500,48500 "
         id="polyline5811" />
      <polyline
         fill="none;"
         points="20500,46500 20500,50500 24500,48500 20500,46500 "
         id="polyline5813" />
    </g>
    <g
       style="fill:#840000;fill-opacity:0;stroke:#840000;stroke-width:100;stroke-linecap:round;stroke-linejoin:round;stroke-opacity:1"
       id="g5837"
       transform="matrix(0.00254,0,0,0.00254,0.18082651,35.889154)">
      <rect
         x="15100"
         y="45500"
         width="800"
         height="2000"
         rx="0"
         id="rect5835" />
    </g>
    <g
       style="fill:#840000;fill-opacity:0;stroke:#840000;stroke-width:60;stroke-linecap:round;stroke-linejoin:round;stroke-opacity:1"
       id="g5843"
       transform="matrix(0.00254,0,0,0.00254,0.18082651,35.889154)">
      <path
         d="m 15500,45500 v -500"
         id="path5839"
         inkscape:connector-curvature="0" />
      <path
         d="m 15500,47500 v 500"
         id="path5841"
         inkscape:connector-curvature="0" />
    </g>
    <g
       style="fill:#008400;fill-opacity:0;stroke:#008400;stroke-width:60;stroke-linecap:round;stroke-linejoin:round;stroke-opacity:1"
       id="g5861"
       transform="matrix(0.00254,0,0,0.00254,0.18082651,35.889154)">
      <path
         d="m 13500,44500 v 2500"
         id="path5845"
         inkscape:connector-curvature="0" />
      <path
         d="m 13500,44500 h 9000"
         id="path5847"
         inkscape:connector-curvature="0" />
      <path
         d="m 15500,48000 v 1000"
         id="path5849"
         inkscape:connector-curvature="0" />
      <path
         d="m 13500,50000 v 2500"
         id="path5851"
         inkscape:connector-curvature="0" />
      <path
         d="m 13500,52500 h 9000"
         id="path5853"
         inkscape:connector-curvature="0" />
      <path
         d="m 15500,48500 h 1000"
         id="path5855"
         inkscape:connector-curvature="0" />
      <path
         d="m 16500,48500 v 1000"
         id="path5857"
         inkscape:connector-curvature="0" />
      <path
         d="m 16500,49500 h 3000"
         id="path5859"
         inkscape:connector-curvature="0" />
    </g>
    <g
       style="fill:#008400;fill-opacity:1;stroke:#008400;stroke-width:100;stroke-linecap:round;stroke-linejoin:round;stroke-opacity:1"
       id="g5867"
       transform="matrix(0.00254,0,0,0.00254,0.18082651,35.889154)">
      <circle
         cx="15500"
         cy="48500"
         r="200"
         id="circle5865" />
    </g>
    <g
       style="fill:#840000;fill-opacity:0;stroke:#840000;stroke-width:60;stroke-linecap:round;stroke-linejoin:round;stroke-opacity:1"
       id="g5891"
       transform="matrix(0.00254,0,0,0.00254,0.18082651,35.889154)">
      <polyline
         fill="none;"
         points="16750,53250 17250,53250 "
         id="polyline5873" />
      <polyline
         fill="none;"
         points="16950,53500 17050,53500 "
         id="polyline5875" />
      <polyline
         fill="none;"
         points="17000,53000 17000,52500 "
         id="polyline5877" />
      <polyline
         fill="none;"
         points="17500,53000 16500,53000 "
         id="polyline5879" />
      <path
         d="m 16850,47740 90,30 h 140 l 60,-30 30,-30 30,-50 v -60 l -30,-60 -30,-30 -60,-20 -110,-30 -60,-30 -30,-30 -30,-60 v -50 l 30,-60 30,-30 60,-30 h 140 l 90,30"
         id="path5881"
         inkscape:connector-curvature="0" />
      <path
         d="m 17450,47770 v -400"
         id="path5883"
         inkscape:connector-curvature="0" />
      <path
         d="m 17450,47170 -30,30 30,30 30,-30 -30,-30 v 60"
         id="path5885"
         inkscape:connector-curvature="0" />
      <path
         d="m 18000,47370 v 490 l -30,50 -30,30 -50,30 h -90 l -60,-30"
         id="path5887"
         inkscape:connector-curvature="0" />
      <path
         d="m 18000,47740 -60,30 h -110 l -60,-30 -30,-30 -30,-50 v -170 l 30,-60 30,-30 60,-30 h 110 l 60,30"
         id="path5889"
         inkscape:connector-curvature="0" />
    </g>
    <g
       style="fill:#840000;fill-opacity:0;stroke:#840000;stroke-width:100;stroke-linecap:round;stroke-linejoin:round;stroke-opacity:1"
       id="g5895"
       transform="matrix(0.00254,0,0,0.00254,0.18082651,35.889154)">
      <polyline
         fill="none;"
         points="18500,47500 18200,46960 16510,46960 16510,47500 16510,48040 18200,48040 18500,47500 "
         id="polyline5893" />
    </g>
    <g
       style="fill:#008400;fill-opacity:0;stroke:#008400;stroke-width:60;stroke-linecap:round;stroke-linejoin:round;stroke-opacity:1"
       id="g5907"
       transform="matrix(0.00254,0,0,0.00254,0.18082651,35.889154)">
      <path
         d="m 18500,47500 h 1000"
         id="path5899"
         inkscape:connector-curvature="0" />
      <path
         d="M 22500,52500 V 50500"
         id="path5901"
         inkscape:connector-curvature="0" />
      <path
         d="m 22500,44500 v 2000"
         id="path5903"
         inkscape:connector-curvature="0" />
      <path
         d="m 15500,45000 v -500"
         id="path5905"
         inkscape:connector-curvature="0" />
    </g>
    <g
       style="fill:#008400;fill-opacity:1;stroke:#008400;stroke-width:100;stroke-linecap:round;stroke-linejoin:round;stroke-opacity:1"
       id="g5913"
       transform="matrix(0.00254,0,0,0.00254,0.18082651,35.889154)">
      <circle
         cx="15500"
         cy="44500"
         r="200"
         id="circle5911" />
    </g>
    <g
       style="fill:#840000;fill-opacity:0;stroke:#840000;stroke-width:100;stroke-linecap:round;stroke-linejoin:round;stroke-opacity:1"
       id="g5921"
       transform="matrix(0.00254,0,0,0.00254,0.18082651,35.889154)">
      <rect
         x="15100"
         y="49500"
         width="800"
         height="2000"
         rx="0"
         id="rect5919" />
    </g>
    <g
       style="fill:#840000;fill-opacity:0;stroke:#840000;stroke-width:60;stroke-linecap:round;stroke-linejoin:round;stroke-opacity:1"
       id="g5927"
       transform="matrix(0.00254,0,0,0.00254,0.18082651,35.889154)">
      <path
         d="m 15500,49500 v -500"
         id="path5923"
         inkscape:connector-curvature="0" />
      <path
         d="m 15500,51500 v 500"
         id="path5925"
         inkscape:connector-curvature="0" />
    </g>
    <g
       style="fill:#008400;fill-opacity:0;stroke:#008400;stroke-width:60;stroke-linecap:round;stroke-linejoin:round;stroke-opacity:1"
       id="g5931"
       transform="matrix(0.00254,0,0,0.00254,0.18082651,35.889154)">
      <path
         d="m 15500,52500 v -500"
         id="path5929"
         inkscape:connector-curvature="0" />
    </g>
    <g
       style="fill:#008400;fill-opacity:1;stroke:#008400;stroke-width:100;stroke-linecap:round;stroke-linejoin:round;stroke-opacity:1"
       id="g5937"
       transform="matrix(0.00254,0,0,0.00254,0.18082651,35.889154)">
      <circle
         cx="15500"
         cy="52500"
         r="200"
         id="circle5935" />
    </g>
    <g
       style="fill:#000000;fill-opacity:0;stroke:#000000;stroke-width:60;stroke-linecap:round;stroke-linejoin:round;stroke-opacity:1"
       id="g5963"
       transform="matrix(0.00254,0,0,0.00254,0.18082651,35.889154)">
      <path
         d="m 12060,46770 200,600 200,-600"
         id="path5945"
         inkscape:connector-curvature="0" />
      <path
         d="m 12620,47340 60,30 h 120 l 50,-30 30,-50 v -30 l -30,-60 -50,-30 h -90 l -60,-30 -30,-50 v -30 l 30,-60 60,-30 h 90 l 50,30"
         id="path5947"
         inkscape:connector-curvature="0" />
      <path
         d="m 14290,46770 -200,-280"
         id="path5949"
         inkscape:connector-curvature="0" />
      <path
         d="m 13940,46770 v -600 h 230 l 60,30 30,30 30,60 v 80 l -30,60 -30,30 -60,30 h -230"
         id="path5951"
         inkscape:connector-curvature="0" />
      <path
         d="m 14860,46770 h -350"
         id="path5953"
         inkscape:connector-curvature="0" />
      <path
         d="m 14690,46770 v -600 l -60,90 -60,50 -60,30"
         id="path5955"
         inkscape:connector-curvature="0" />
      <path
         d="m 14290,50870 -200,-280"
         id="path5957"
         inkscape:connector-curvature="0" />
      <path
         d="m 13940,50870 v -600 h 230 l 60,30 30,30 30,60 v 80 l -30,60 -30,30 -60,30 h -230"
         id="path5959"
         inkscape:connector-curvature="0" />
      <path
         d="m 14510,50330 30,-30 60,-30 h 140 l 60,30 30,30 30,60 v 50 l -30,90 -340,340 h 370"
         id="path5961"
         inkscape:connector-curvature="0" />
    </g>
  </g>
</svg>
